<svg xmlns="http://www.w3.org/2000/svg" viewBox="0 0 750 600" width="750" height="600" style="background-color:#08080a; font-family: 'Inter', sans-serif;">
    <defs>
        <linearGradient id="gBlue" x1="0%" y1="0%" x2="100%" y2="100%">
            <stop offset="0%" stop-color="#0A84FF" />
            <stop offset="100%" stop-color="#0A84FF" stop-opacity="0.6"/>
        </linearGradient>
        <linearGradient id="gGreen" x1="0%" y1="0%" x2="100%" y2="100%">
            <stop offset="0%" stop-color="#30D158" />
            <stop offset="100%" stop-color="#30D158" stop-opacity="0.6"/>
        </linearGradient>
        <linearGradient id="gPurple" x1="0%" y1="0%" x2="100%" y2="100%">
            <stop offset="0%" stop-color="#5E5CE6" />
            <stop offset="100%" stop-color="#5E5CE6" stop-opacity="0.6"/>
        </linearGradient>
        <linearGradient id="gRed" x1="0%" y1="0%" x2="100%" y2="100%">
            <stop offset="0%" stop-color="#FF453A" />
            <stop offset="100%" stop-color="#FF453A" stop-opacity="0.6"/>
        </linearGradient>
        <style>
            .title { fill: #f3f4f6; font-size: 28px; font-weight: bold; text-anchor: middle; }
            .box-text { fill: #ffffff; font-size: 16px; font-weight: bold; text-anchor: middle; }
            .sub-text { fill: rgba(255,255,255,0.7); font-size: 13px; text-anchor: middle; }
            .arrow { stroke: rgba(255,255,255,0.3); stroke-width: 3; fill: none; }
            .arrow-head { fill: rgba(255,255,255,0.3); }
            .rect-box { rx: 12; ry: 12; stroke: rgba(255,255,255,0.1); stroke-width: 2; }
        </style>
        <marker id="arrowhead" markerWidth="10" markerHeight="7" refX="9" refY="3.5" orient="auto">
          <polygon points="0 0, 10 3.5, 0 7" class="arrow-head" />
        </marker>
    </defs>
    <text x="350" y="50" class="title">Механизм Защиты от Зависания</text>
    <rect x="250" y="100" width="200" height="70" fill="url(#gBlue)" class="rect-box" />
    <text x="350.0" y="133.0" class="box-text">Скроллинг вниз</text>
    <text x="350.0" y="153.0" class="sub-text">Ожидание новых постов 15 сек</text>
    <line x1="350" y1="170" x2="350" y2="220" class="arrow" marker-end="url(#arrowhead)"/>
    <rect x="250" y="220" width="200" height="70" fill="url(#gPurple)" class="rect-box" />
    <text x="350.0" y="253.0" class="box-text">Проверка (no_new &gt;= 4)</text>
    <text x="350.0" y="273.0" class="sub-text">Появился ли новый контент?</text>
    <line x1="450" y1="255" x2="550" y2="255" class="arrow" marker-end="url(#arrowhead)"/>
    <text x="500" y="245" class="sub-text">Если ДА</text>
    <rect x="550" y="220" width="150" height="70" fill="url(#gGreen)" class="rect-box" />
    <text x="625.0" y="253.0" class="box-text">Продолжаем</text>
    <text x="625.0" y="273.0" class="sub-text">Обнуляем счетчик</text>
    <line x1="350" y1="290" x2="350" y2="350" class="arrow" marker-end="url(#arrowhead)"/>
    <text x="385" y="325" class="sub-text">Если НЕТ (&gt;60 сек)</text>
    <rect x="250" y="350" width="200" height="90" fill="url(#gRed)" class="rect-box" />
    <text x="350.0" y="393.0" class="box-text">РЕЖИМ СПАСЕНИЯ</text>
    <text x="350.0" y="413.0" class="sub-text">1. Закрыть баннеры/модалки</text>
    <text x="350.0" y="433.0" class="sub-text">2. Обновить страницу</text>
    <line x1="350" y1="440" x2="350" y2="490" class="arrow" marker-end="url(#arrowhead)"/>
    <rect x="250" y="490" width="200" height="70" fill="url(#gPurple)" class="rect-box" />
    <text x="350.0" y="523.0" class="box-text">Финальная Попытка</text>
    <text x="350.0" y="543.0" class="sub-text">Еще один шанс</text>
    <line x1="450" y1="525" x2="550" y2="525" class="arrow" marker-end="url(#arrowhead)"/>
    <text x="500" y="515" class="sub-text">Всё равно пусто</text>
    <rect x="550" y="490" width="150" height="70" fill="url(#gRed)" class="rect-box" />
    <text x="625.0" y="523.0" class="box-text">СТОП / ДАЛЬШЕ</text>
    <text x="625.0" y="543.0" class="sub-text">Лимит исчерпан</text>
</svg>